<svg id="Layer_1" data-name="Layer 1" xmlns="http://www.w3.org/2000/svg" viewBox="0 0 194.39 74.99"><defs><style>.cls-1{fill:#231f20;}</style></defs><path class="cls-1" d="M454.3,362.25v13.28H431.87v61.71H416.09V375.53H393.56V362.25Z" transform="translate(-393.56 -362.25)"/><path class="cls-1" d="M477.22,362.25H495l26.53,75h-17l-4.95-15.42H471.93l-5.09,15.42H450.45Zm-1,46.65h19.2l-9.47-29.51Z" transform="translate(-393.56 -362.25)"/><path class="cls-1" d="M581.36,404.78q-6.58,5.49-18.8,5.5H546.94v27H531.38v-75h32.19q11.14,0,17.76,5.8T588,386Q588,399.29,581.36,404.78Zm-12-27q-3-2.5-8.34-2.5H546.94v22.08h14.12q5.37,0,8.34-2.69t3-8.55Q572.38,380.26,569.4,377.77Z" transform="translate(-393.56 -362.25)"/></svg>